<svg width="51" height="43" viewBox="0 0 51 43" fill="none" xmlns="http://www.w3.org/2000/svg">
<mask id="mask0_423_192" style="mask-type:luminance" maskUnits="userSpaceOnUse" x="0" y="0" width="40" height="41">
<path d="M0 0H39.9934V40.5386H0V0Z" fill="white"/>
</mask>
<g mask="url(#mask0_423_192)">
<path fill-rule="evenodd" clip-rule="evenodd" d="M11.9135 0.177979C10.9357 0.177979 10.1459 0.966748 10.1459 1.94889V7.97827C10.1459 8.95932 10.9357 9.74918 11.9135 9.74918C12.8946 9.74918 13.6844 8.96041 13.6844 7.97827V5.92223C14.4939 6.49578 14.9779 7.42548 14.9779 8.42182C14.9779 10.113 13.6058 11.4862 11.9135 11.4862C10.2213 11.4862 8.84911 10.113 8.84911 8.42182V3.356H6.67945C5.47117 3.356 4.32079 3.6608 3.42278 4.37528C2.5193 5.09194 1.95012 6.20409 1.82994 7.47464L0.0590366 35.3787C-0.0196218 36.6624 0.264422 37.9001 1.02697 38.8386C1.78843 39.7748 2.99562 40.3615 4.33172 40.3615H28.5225C27.7916 39.5553 27.147 38.6693 26.6248 37.7101H4.62996C3.97885 37.7101 3.58337 37.4828 3.28512 37.1157C2.98688 36.752 2.82847 36.1992 2.8667 35.4956L3.98868 13.7247H37.0689L37.2634 17.5036C37.731 17.4555 38.2051 17.4315 38.6847 17.4315C39.0758 17.4315 39.4702 17.4522 39.8613 17.4817L39.2266 7.47464C39.1031 6.20518 38.5372 5.09304 37.6337 4.37528C36.7357 3.66189 35.5853 3.356 34.377 3.356H30.9117V1.94889C30.9117 0.966748 30.1208 0.177979 29.1397 0.177979C28.1619 0.177979 27.3732 0.966748 27.3732 1.94889V7.97827C27.3732 8.95932 28.1619 9.74918 29.1397 9.74918C30.1208 9.74918 30.9117 8.96041 30.9117 7.97827V5.92223C31.7212 6.49578 32.2052 7.42548 32.2085 8.42182C32.2085 10.113 30.8352 11.4862 29.1397 11.4862C27.4475 11.4862 26.0753 10.113 26.0753 8.42182V3.356H13.6844V1.94889C13.6844 0.966748 12.8946 0.177979 11.9135 0.177979Z" fill="#AB7779"/>
</g>
<path fill-rule="evenodd" clip-rule="evenodd" d="M8.62953 18.2368H13.0257C13.6702 18.2368 14.1924 18.7536 14.1924 19.3992V22.8318C14.1924 23.4763 13.6702 23.9942 13.0257 23.9942H8.62953C7.98387 23.9942 7.46167 23.4763 7.46167 22.8318V19.3992C7.46167 18.7536 7.98387 18.2368 8.62953 18.2368Z" fill="#AB7779"/>
<path fill-rule="evenodd" clip-rule="evenodd" d="M18.3306 18.2368H22.7267C23.3724 18.2368 23.8946 18.7536 23.8946 19.3992V22.8318C23.8946 23.4763 23.3724 23.9942 22.7267 23.9942H18.3306C17.6849 23.9942 17.1638 23.4763 17.1638 22.8318V19.3992C17.1638 18.7536 17.6849 18.2368 18.3306 18.2368Z" fill="#AB7779"/>
<path fill-rule="evenodd" clip-rule="evenodd" d="M28.0331 18.2368C27.3874 18.2368 26.8652 18.7536 26.8652 19.3992V22.8318C26.8652 23.1541 26.9963 23.449 27.2094 23.6588C28.6744 21.4247 30.7676 19.6396 33.2388 18.5667C33.0301 18.3635 32.745 18.2368 32.4292 18.2368H28.0331Z" fill="#AB7779"/>
<path fill-rule="evenodd" clip-rule="evenodd" d="M8.62953 27.4377H13.0257C13.6702 27.4377 14.1924 27.9589 14.1924 28.6045V32.0338C14.1924 32.6784 13.6702 33.2006 13.0257 33.2006H8.62953C7.98387 33.2006 7.46167 32.6784 7.46167 32.0338V28.6045C7.46167 27.9589 7.98387 27.4377 8.62953 27.4377Z" fill="#AB7779"/>
<path fill-rule="evenodd" clip-rule="evenodd" d="M18.3306 27.4377H22.7267C23.3724 27.4377 23.8946 27.9589 23.8946 28.6045V32.0338C23.8946 32.6784 23.3724 33.2006 22.7267 33.2006H18.3306C17.6849 33.2006 17.1638 32.6784 17.1638 32.0338V28.6045C17.1638 27.9589 17.6849 27.4377 18.3306 27.4377Z" fill="#AB7779"/>
<mask id="mask1_423_192" style="mask-type:luminance" maskUnits="userSpaceOnUse" x="26" y="19" width="25" height="24">
<path d="M26.8486 19.2834H50.3413V43.0001H26.8486V19.2834Z" fill="white"/>
</mask>
<g mask="url(#mask1_423_192)">
<path fill-rule="evenodd" clip-rule="evenodd" d="M38.6846 19.5369C32.2706 19.5369 27.0715 24.7425 27.0715 31.1674C27.0715 37.589 32.2706 42.7957 38.6846 42.7957C41.7632 42.7957 44.7183 41.5732 46.8935 39.3905C49.0697 37.2077 50.2943 34.2536 50.2943 31.1674C50.2943 28.0833 49.0686 25.1238 46.8935 22.941C44.7183 20.7626 41.7632 19.5369 38.6846 19.5369ZM38.6846 22.4134C41.0006 22.4134 43.226 23.3365 44.8625 24.9774C46.5023 26.6216 47.4222 28.8448 47.4222 31.1685C47.4222 33.4878 46.5023 35.7154 44.8625 37.3563C43.226 39.0004 41.0006 39.9203 38.6846 39.9203C33.8558 39.9203 29.9437 36.0005 29.9437 31.1685C29.9437 26.3321 33.8558 22.4134 38.6846 22.4134Z" fill="#AB7779"/>
</g>
<path d="M38.5821 23.7406C38.0675 23.7483 37.6556 24.1732 37.6622 24.6878L37.672 31.5409L41.4411 35.2925C41.8049 35.6661 42.409 35.6694 42.7761 35.2957C43.1431 34.9243 43.1333 34.3234 42.7553 33.964L39.5369 30.7609L39.5292 24.6834C39.5358 24.1601 39.1064 23.7319 38.5821 23.7406Z" fill="#AB7779"/>
</svg>
