<svg width="64" height="64" viewBox="0 0 64 64" fill="none" xmlns="http://www.w3.org/2000/svg">
<path d="M58 16H6C3.79086 16 2 17.7909 2 20V52C2 54.2091 3.79086 56 6 56H58C60.2091 56 62 54.2091 62 52V20C62 17.7909 60.2091 16 58 16Z" fill="#F29B99"/>
<path d="M6 16C4.93913 16 3.92172 16.4214 3.17157 17.1716C2.42143 17.9217 2 18.9391 2 20V52C2.00216 52.3005 2.03839 52.5997 2.108 52.892C2.40029 52.9616 2.69954 52.9978 3 53H55C56.0609 53 57.0783 52.5786 57.8284 51.8284C58.5786 51.0783 59 50.0609 59 49V17C58.9978 16.6995 58.9616 16.4003 58.892 16.108C58.5997 16.0384 58.3005 16.0022 58 16H6Z" fill="#F9ACAC"/>
<path d="M62 24H2V20C2 18.9391 2.42143 17.9217 3.17157 17.1716C3.92172 16.4214 4.93913 16 6 16H58C59.0609 16 60.0783 16.4214 60.8284 17.1716C61.5786 17.9217 62 18.9391 62 20V24Z" fill="#E1656E"/>
<path d="M2 21H57C57.5304 21 58.0391 20.7893 58.4142 20.4142C58.7893 20.0391 59 19.5304 59 19V17C58.9978 16.6995 58.9616 16.4003 58.892 16.108C58.5997 16.0384 58.3005 16.0022 58 16H6C4.93913 16 3.92172 16.4214 3.17157 17.1716C2.42143 17.9217 2 18.9391 2 20V21Z" fill="#E87785"/>
<path d="M32 52C40.8366 52 48 44.8366 48 36C48 27.1634 40.8366 20 32 20C23.1634 20 16 27.1634 16 36C16 44.8366 23.1634 52 32 52Z" fill="#BA4753"/>
<path d="M32 48C38.6274 48 44 42.6274 44 36C44 29.3726 38.6274 24 32 24C25.3726 24 20 29.3726 20 36C20 42.6274 25.3726 48 32 48Z" fill="#F8CED7"/>
<path d="M41 34.0001C41.0002 32.3292 40.6501 30.6768 39.9724 29.1495C39.2946 27.6222 38.3041 26.254 37.065 25.1331C34.466 23.9169 31.5169 23.6736 28.7537 24.4473C25.9906 25.2211 23.5967 26.9605 22.0072 29.3494C20.4177 31.7384 19.7381 34.6184 20.0918 37.466C20.4456 40.3135 21.8092 42.9397 23.935 44.8671C25.7622 45.7237 27.7763 46.1048 29.7902 45.9751C31.8041 45.8453 33.7526 45.2089 35.4549 44.1249C37.1571 43.0409 38.558 41.5445 39.5274 39.7744C40.4967 38.0044 41.0033 36.0182 41 34.0001Z" fill="#FFDEE7"/>
<path d="M32 42L37.129 37.6C37.7152 37.0974 38.1859 36.474 38.5088 35.7725C38.8317 35.0711 38.9993 34.3082 39 33.536C39 32.5982 38.6275 31.6988 37.9643 31.0357C37.3012 30.3725 36.4018 30 35.464 30C34.9997 30 34.5399 30.0915 34.1109 30.2693C33.682 30.4471 33.2922 30.7076 32.964 31.036L32 32L31.036 31.036C30.7078 30.7076 30.318 30.4471 29.8891 30.2693C29.4601 30.0915 29.0003 30 28.536 30C27.5982 30 26.6988 30.3725 26.0357 31.0357C25.3725 31.6988 25 32.5982 25 33.536C25.0007 34.3082 25.1683 35.0711 25.4912 35.7725C25.8141 36.474 26.2848 37.0974 26.871 37.6L32 42Z" fill="#E87785"/>
<path d="M45 16L40 8H24L19 16" fill="#E1656E"/>
<path d="M25 16L27 12H37L39 16" fill="#F8CED7"/>
<path d="M55 52C56.6569 52 58 50.6569 58 49C58 47.3431 56.6569 46 55 46C53.3431 46 52 47.3431 52 49C52 50.6569 53.3431 52 55 52Z" fill="#BA4753"/>
<path d="M6 16V14C6 13.4696 6.21071 12.9609 6.58579 12.5858C6.96086 12.2107 7.46957 12 8 12H12C12.5304 12 13.0391 12.2107 13.4142 12.5858C13.7893 12.9609 14 13.4696 14 14V16" fill="#BA4753"/>
<path d="M6 28H12V32H6V28Z" fill="#F2F2F2"/>
<path d="M6 28H10V30H6V28Z" fill="white"/>
<path d="M58 15H45.554L40.848 7.47C40.7581 7.32617 40.6331 7.20758 40.4848 7.12536C40.3364 7.04314 40.1696 7 40 7H24C23.8304 7 23.6636 7.04314 23.5152 7.12536C23.3669 7.20758 23.2419 7.32617 23.152 7.47L18.446 15H15V14C15 13.2044 14.6839 12.4413 14.1213 11.8787C13.5587 11.3161 12.7956 11 12 11H8C7.20435 11 6.44129 11.3161 5.87868 11.8787C5.31607 12.4413 5 13.2044 5 14V15.1C3.87141 15.3321 2.85735 15.9462 2.12872 16.8387C1.40009 17.7313 1.00145 18.8478 1 20V52C1.00159 53.3256 1.52888 54.5964 2.46622 55.5338C3.40356 56.4711 4.6744 56.9984 6 57H58C59.3256 56.9984 60.5964 56.4711 61.5338 55.5338C62.4711 54.5964 62.9984 53.3256 63 52V20C62.9984 18.6744 62.4711 17.4036 61.5338 16.4662C60.5964 15.5289 59.3256 15.0016 58 15ZM24.554 9H39.446L43.196 15H39.618L37.9 11.553C37.8166 11.386 37.688 11.2457 37.529 11.148C37.3699 11.0502 37.1867 10.999 37 11H27C26.8142 10.9999 26.632 11.0516 26.4739 11.1493C26.3158 11.247 26.1881 11.3868 26.105 11.553L24.382 15H20.8L24.554 9ZM37.382 15H26.618L27.618 13H36.382L37.382 15ZM8 13H12C12.2652 13 12.5196 13.1054 12.7071 13.2929C12.8946 13.4804 13 13.7348 13 14V15H7V14C7 13.7348 7.10536 13.4804 7.29289 13.2929C7.48043 13.1054 7.73478 13 8 13ZM6 17H58C58.7956 17 59.5587 17.3161 60.1213 17.8787C60.6839 18.4413 61 19.2044 61 20V23H42.932C39.8749 20.4171 36.0021 19.0001 32 19.0001C27.9979 19.0001 24.1251 20.4171 21.068 23H3V20C3 19.2044 3.31607 18.4413 3.87868 17.8787C4.44129 17.3161 5.20435 17 6 17ZM32 21C34.9667 21 37.8668 21.8797 40.3336 23.528C42.8003 25.1762 44.7229 27.5189 45.8582 30.2597C46.9935 33.0006 47.2906 36.0166 46.7118 38.9264C46.133 41.8361 44.7044 44.5088 42.6066 46.6066C40.5088 48.7044 37.8361 50.133 34.9264 50.7118C32.0166 51.2906 29.0006 50.9935 26.2597 49.8582C23.5189 48.7229 21.1762 46.8003 19.528 44.3336C17.8797 41.8668 17 38.9667 17 36C17.0045 32.0231 18.5863 28.2104 21.3984 25.3984C24.2104 22.5863 28.0231 21.0045 32 21ZM58 55H6C5.20435 55 4.44129 54.6839 3.87868 54.1213C3.31607 53.5587 3 52.7956 3 52V25H19.062C16.9556 27.4713 15.601 30.4942 15.1586 33.7111C14.7161 36.928 15.2042 40.2044 16.5651 43.1526C17.9261 46.1008 20.103 48.5976 22.8382 50.3476C25.5735 52.0976 28.7528 53.0276 32 53.0276C35.2472 53.0276 38.4265 52.0976 41.1618 50.3476C43.897 48.5976 46.0739 46.1008 47.4349 43.1526C48.7958 40.2044 49.2839 36.928 48.8414 33.7111C48.399 30.4942 47.0444 27.4713 44.938 25H61V52C61 52.7956 60.6839 53.5587 60.1213 54.1213C59.5587 54.6839 58.7956 55 58 55Z" fill="black"/>
<path d="M32 49C34.5712 49 37.0846 48.2376 39.2224 46.8091C41.3603 45.3807 43.0265 43.3503 44.0104 40.9749C44.9944 38.5995 45.2518 35.9856 44.7502 33.4638C44.2486 30.9421 43.0105 28.6257 41.1924 26.8076C39.3743 24.9895 37.0579 23.7514 34.5362 23.2498C32.0144 22.7482 29.4006 23.0056 27.0251 23.9896C24.6497 24.9735 22.6194 26.6398 21.1909 28.7776C19.7624 30.9154 19 33.4288 19 36C19.004 39.4466 20.3749 42.7509 22.812 45.188C25.2491 47.6251 28.5534 48.996 32 49ZM32 25C34.1756 25 36.3023 25.6451 38.1113 26.8538C39.9202 28.0625 41.3301 29.7805 42.1627 31.7905C42.9952 33.8005 43.2131 36.0122 42.7886 38.146C42.3642 40.2798 41.3166 42.2398 39.7782 43.7782C38.2398 45.3166 36.2798 46.3642 34.146 46.7886C32.0122 47.2131 29.8005 46.9952 27.7905 46.1627C25.7805 45.3301 24.0625 43.9202 22.8538 42.1113C21.6451 40.3023 21 38.1756 21 36C21.0034 33.0837 22.1635 30.2878 24.2256 28.2256C26.2878 26.1635 29.0837 25.0034 32 25Z" fill="black"/>
<path d="M26.22 38.363L31.349 42.763C31.5301 42.9179 31.7606 43.0031 31.999 43.0031C32.2374 43.0031 32.4679 42.9179 32.649 42.763L37.778 38.363C38.475 37.7666 39.0345 37.0263 39.4181 36.1931C39.8017 35.3598 40.0002 34.4533 40 33.536C40.0003 32.6388 39.7345 31.7616 39.2361 31.0155C38.7378 30.2694 38.0293 29.6879 37.2004 29.3446C36.3714 29.0013 35.4593 28.9116 34.5793 29.0868C33.6994 29.262 32.8912 29.6943 32.257 30.329L32 30.586L31.743 30.329C31.1088 29.6943 30.3006 29.262 29.4207 29.0868C28.5407 28.9116 27.6286 29.0013 26.7996 29.3446C25.9707 29.6879 25.2622 30.2694 24.7639 31.0155C24.2655 31.7616 23.9997 32.6388 24 33.536C23.9996 34.4532 24.1978 35.3595 24.581 36.1928C24.9642 37.0261 25.5234 37.7664 26.22 38.363ZM28.536 31C28.8691 30.9992 29.1991 31.0644 29.5069 31.192C29.8147 31.3195 30.0941 31.5068 30.329 31.743L31.293 32.707C31.4805 32.8945 31.7348 32.9998 32 32.9998C32.2652 32.9998 32.5195 32.8945 32.707 32.707L33.671 31.743C34.0257 31.3884 34.4775 31.147 34.9694 31.0492C35.4612 30.9513 35.9711 31.0016 36.4344 31.1935C36.8978 31.3854 37.2938 31.7103 37.5725 32.1273C37.8511 32.5443 37.9999 33.0345 38 33.536C38.0003 34.1647 37.8644 34.7861 37.6016 35.3573C37.3389 35.9285 36.9556 36.436 36.478 36.845L32 40.683L27.522 36.845C27.0444 36.436 26.6611 35.9285 26.3984 35.3573C26.1356 34.7861 25.9997 34.1647 26 33.536C26.0008 32.8637 26.2682 32.2191 26.7437 31.7437C27.2191 31.2682 27.8637 31.0008 28.536 31ZM55 45C54.2089 45 53.4355 45.2346 52.7777 45.6741C52.1199 46.1136 51.6072 46.7384 51.3045 47.4693C51.0017 48.2002 50.9225 49.0044 51.0769 49.7804C51.2312 50.5563 51.6122 51.269 52.1716 51.8284C52.731 52.3878 53.4437 52.7688 54.2196 52.9231C54.9956 53.0775 55.7998 52.9983 56.5307 52.6955C57.2616 52.3928 57.8864 51.8801 58.3259 51.2223C58.7654 50.5645 59 49.7911 59 49C59 47.9391 58.5786 46.9217 57.8284 46.1716C57.0783 45.4214 56.0609 45 55 45ZM55 51C54.6044 51 54.2178 50.8827 53.8889 50.6629C53.56 50.4432 53.3036 50.1308 53.1522 49.7654C53.0009 49.3999 52.9613 48.9978 53.0384 48.6098C53.1156 48.2219 53.3061 47.8655 53.5858 47.5858C53.8655 47.3061 54.2219 47.1156 54.6098 47.0384C54.9978 46.9613 55.3999 47.0009 55.7654 47.1522C56.1308 47.3036 56.4432 47.56 56.6629 47.8889C56.8827 48.2178 57 48.6044 57 49C57 49.5304 56.7893 50.0391 56.4142 50.4142C56.0391 50.7893 55.5304 51 55 51ZM12 27H6C5.73478 27 5.48043 27.1054 5.29289 27.2929C5.10536 27.4804 5 27.7348 5 28V32C5 32.2652 5.10536 32.5196 5.29289 32.7071C5.48043 32.8946 5.73478 33 6 33H12C12.2652 33 12.5196 32.8946 12.7071 32.7071C12.8946 32.5196 13 32.2652 13 32V28C13 27.7348 12.8946 27.4804 12.7071 27.2929C12.5196 27.1054 12.2652 27 12 27ZM11 31H7V29H11V31Z" fill="black"/>
</svg>
