<svg width="512" height="512" viewBox="0 0 512 512" fill="none" xmlns="http://www.w3.org/2000/svg">
<path d="M162.742 197.244C77.6099 197.244 8.5979 266.026 8.5979 350.872C8.5979 435.719 77.6109 504.5 162.742 504.5C247.873 504.5 316.886 435.718 316.886 350.872C316.887 266.025 247.874 197.244 162.742 197.244ZM162.742 466.435C98.8059 466.435 46.7909 414.594 46.7909 350.872C46.7909 287.15 98.8059 235.309 162.742 235.309C226.678 235.309 278.694 287.15 278.694 350.872C278.694 414.594 226.678 466.435 162.742 466.435Z" fill="#FFC344"/>
<path d="M349.258 197.244C314.207 197.244 281.895 208.912 256 228.552C266.324 236.38 275.624 245.474 283.682 255.619C302.346 242.816 324.937 235.309 349.257 235.309C413.193 235.309 465.209 287.15 465.209 350.872C465.209 414.594 413.193 466.435 349.257 466.435C324.937 466.435 302.346 458.928 283.682 446.125C273.045 438.828 263.69 429.819 255.999 419.463C241.746 400.265 233.306 376.533 233.306 350.872C233.306 325.21 241.746 301.479 255.999 282.281C248.308 271.925 238.953 262.916 228.316 255.62C207.528 281.803 195.112 314.892 195.112 350.873C195.112 386.854 207.527 419.943 228.316 446.126C236.374 456.272 245.674 465.365 255.999 473.193C281.893 492.833 314.206 504.501 349.257 504.501C434.388 504.501 503.401 435.719 503.401 350.873C503.402 266.025 434.389 197.244 349.258 197.244Z" fill="#FFF0AD"/>
<path d="M349.258 197.244C342.482 197.244 335.809 197.685 329.264 198.53C391.786 206.606 442.547 252.019 458.31 311.596C462.885 324.184 465.22 337.477 465.209 350.871C465.209 364.654 462.771 377.879 458.31 390.146C442.547 449.724 391.786 495.136 329.264 503.212C335.894 504.068 342.573 504.498 349.258 504.498C434.389 504.498 503.402 435.717 503.402 350.87C503.402 266.025 434.389 197.244 349.258 197.244Z" fill="#FFE177"/>
<path d="M297.286 34.489C274.484 34.489 256 52.925 256 75.666C256 52.925 237.516 34.489 214.714 34.489C191.912 34.489 173.428 52.924 173.428 75.666C173.428 120.293 256 174.295 256 174.295C256 174.295 338.572 120.293 338.572 75.666C338.572 52.925 320.088 34.489 297.286 34.489Z" fill="#FE73C5"/>
<path d="M297.286 34.49C290.29 34.4808 283.406 36.2546 277.286 39.644C289.978 46.669 298.572 60.164 298.572 75.667C298.572 105.997 260.438 140.651 236 159.746C247.52 168.747 256 174.296 256 174.296C256 174.296 338.572 120.294 338.572 75.667C338.572 52.925 320.088 34.49 297.286 34.49Z" fill="#FE4FB7"/>
<path d="M283.687 446.128C304.476 419.945 316.887 386.853 316.887 350.872C316.887 266.026 247.874 197.244 162.743 197.244C77.6109 197.244 8.59888 266.026 8.59888 350.872C8.59888 435.719 77.6119 504.5 162.743 504.5C197.794 504.5 230.112 492.84 256.007 473.2M228.321 446.131C209.657 458.934 187.062 466.435 162.742 466.435C98.8059 466.435 46.7909 414.594 46.7909 350.872C46.7909 287.15 98.8059 235.309 162.742 235.309C226.678 235.309 278.694 287.15 278.694 350.872C278.694 376.534 270.258 400.269 256.005 419.467" stroke="black" stroke-width="8" stroke-miterlimit="10" stroke-linecap="round" stroke-linejoin="round"/>
<path d="M461.98 455.643C487.672 428.198 503.402 391.368 503.402 350.872C503.402 266.026 434.389 197.244 349.258 197.244C314.207 197.244 281.895 208.912 256 228.552C266.324 236.38 275.624 245.474 283.682 255.619C302.346 242.816 324.937 235.309 349.257 235.309C413.193 235.309 465.209 287.15 465.209 350.872C465.209 414.594 413.193 466.435 349.257 466.435C324.937 466.435 302.346 458.928 283.682 446.125C273.045 438.828 263.691 429.819 255.999 419.464C241.746 400.266 233.306 376.534 233.306 350.872C233.306 325.21 241.746 301.479 255.999 282.281C248.307 271.926 238.953 262.916 228.316 255.619C207.527 281.802 195.112 314.891 195.112 350.872C195.112 386.853 207.527 419.943 228.316 446.125C236.374 456.271 245.675 465.364 255.999 473.192C281.893 492.832 314.206 504.5 349.257 504.5C383.037 504.5 414.272 493.662 439.672 475.297M177.095 58.707C174.674 64.0329 173.424 69.8159 173.428 75.666C173.428 120.293 256 174.295 256 174.295C256 174.295 338.572 120.293 338.572 75.666C338.572 52.925 320.088 34.489 297.286 34.489C274.484 34.49 256 52.925 256 75.666C256 52.925 237.516 34.489 214.714 34.489C209.001 34.4839 203.349 35.6666 198.118 37.962M131.757 7.5L147.461 16.543M112.536 79.042H130.67M131.757 150.584L147.461 141.541M380.243 150.585L364.539 141.542M399.464 79.043H381.33M380.243 7.5L364.539 16.543" stroke="black" stroke-width="8" stroke-miterlimit="10" stroke-linecap="round" stroke-linejoin="round"/>
</svg>
