<svg width="64" height="64" viewBox="0 0 64 64" fill="none" xmlns="http://www.w3.org/2000/svg">
<path d="M41.9999 23.25C52.3549 23.25 60.7499 31.645 60.7499 42C60.7499 52.355 52.3549 60.75 41.9999 60.75C38.3237 60.75 34.8937 59.6912 31.9999 57.8625C33.7368 56.7661 35.2819 55.392 36.5737 53.795C45.0902 57.7212 54.9812 51.522 54.9812 42C54.9812 32.4794 45.092 26.2779 36.5737 30.205C28.8755 33.7484 26.5383 43.6894 31.9999 50.2762C30.7662 51.7662 29.2049 52.9762 27.4262 53.795C20.3978 45.129 22.4514 32.1645 31.9999 26.1375C34.8937 24.3088 38.3237 23.25 41.9999 23.25Z" fill="#FCBE00"/>
<path d="M36.5736 30.2049C43.6373 38.9146 41.5006 51.8656 31.9999 57.8624C29.1061 59.6912 25.6761 60.7499 21.9999 60.7499C11.6449 60.7499 3.24988 52.3549 3.24988 41.9999C3.24988 30.6849 13.2095 21.9401 24.4261 23.4062C27.1197 23.7534 29.7047 24.6856 31.9999 26.1374C30.263 27.2339 28.7179 28.608 27.4261 30.2049C18.9098 26.2787 9.01863 32.4779 9.01863 41.9999C9.01863 49.1687 14.8311 54.9812 21.9999 54.9812C23.9374 54.9812 25.7749 54.5562 27.4261 53.7949C29.2049 52.9762 30.7661 51.7662 31.9999 50.2762C35.976 45.4808 35.9778 38.5211 31.9999 33.7237C33.2336 32.2337 34.7949 31.0237 36.5736 30.2049Z" fill="#FFD92E"/>
<path d="M30.1149 15.6274C30.1149 16.9999 29.6036 18.2574 28.5049 19.5824C27.4629 20.8391 25.7618 22.276 24.4261 23.4061C22.8154 23.1977 21.1844 23.1977 19.5736 23.4061C18.2304 22.2868 16.4875 20.7796 15.4949 19.5824C14.3961 18.2574 13.8849 16.9999 13.8849 15.6274C13.8849 10.9785 19.2694 8.92063 21.9999 12.7074C22.8665 11.5104 24.0911 10.7499 25.5811 10.7499C28.1794 10.7499 30.1149 12.8794 30.1149 15.6274ZM60.1286 17.6149C59.2246 18.5189 57.7616 18.3279 56.3186 18.2124C55.329 18.1328 55.2384 18.1709 55.0949 18.0274C55.0286 17.9611 54.9899 17.8749 54.9836 17.7824C54.8309 15.524 54.521 13.98 55.5074 12.9936C56.8344 11.6623 58.9415 12.6214 58.6499 14.4724C58.8561 14.4399 59.0574 14.4349 59.2499 14.4599C60.6549 14.6395 61.3291 16.4183 60.1286 17.6149Z" fill="#EC6385"/>
<path d="M50.9324 9.5488C50.7588 11.7024 51.0841 11.3775 48.9286 11.5513C46.9179 11.7112 44.799 11.9838 43.5149 10.7025C41.6103 8.79792 43.0116 5.81492 45.6174 6.2363C45.1968 3.63492 48.1766 2.2268 50.0836 4.1338C51.3646 5.4118 51.0964 7.49392 50.9324 9.5488Z" fill="#FF6E6A"/>
<path d="M43.0735 11.1448C40.955 9.02719 42.2205 5.70281 44.9553 5.57406C45.0819 2.87131 48.3859 1.55244 50.5256 3.69169C52.1953 5.35756 51.6555 7.96569 51.451 10.9809C51.4319 11.2636 51.311 11.5298 51.1105 11.73C50.9101 11.9303 50.6438 12.051 50.3611 12.0698C49.847 12.1047 49.4244 12.1386 48.9579 12.1758C46.7231 12.3537 44.5389 12.6073 43.0735 11.1448ZM43.9568 10.2604C45.1094 11.4106 47.0136 11.0472 50.2085 10.8273C50.4251 7.67544 50.7954 5.72706 49.6423 4.57606C48.3039 3.23844 46.4103 3.97781 46.2185 5.46256C46.1375 6.09406 46.3985 6.33869 46.0595 6.67819C45.9895 6.74818 45.9039 6.80054 45.8097 6.83097C45.7155 6.86139 45.6155 6.86901 45.5178 6.85319C43.5049 6.52794 42.4814 8.78544 43.9568 10.2604ZM56.2815 18.8363C56.2364 18.8338 55.8159 18.7974 55.2989 18.7622C55.0554 18.7461 54.826 18.6421 54.6534 18.4696C54.4807 18.2972 54.3765 18.0679 54.3601 17.8244C54.2181 15.7353 53.8196 13.7973 55.0655 12.5517C56.61 11.0017 59.0604 11.8439 59.2874 13.8349C60.5325 13.9721 61.4225 15.0589 61.3733 16.2874C61.3224 17.5387 60.349 18.7414 58.6023 18.9058C57.8955 18.9719 57.0426 18.8972 56.2815 18.8363ZM59.6868 17.1732C60.5969 16.2659 59.9893 14.8926 58.7471 15.0899C58.3288 15.1562 57.9666 14.7942 58.0324 14.3752C58.2291 13.1306 56.8545 12.5271 55.9499 13.4351C55.206 14.1789 55.4496 15.5297 55.5925 17.5299C57.5001 17.6664 58.9358 17.9238 59.6868 17.1732ZM23.9499 23.8109C23.8967 23.7484 23.8564 23.676 23.8313 23.5979C23.8061 23.5197 23.7966 23.4374 23.8032 23.3556C23.8099 23.2738 23.8326 23.1941 23.87 23.1211C23.9075 23.048 23.959 22.9831 24.0215 22.9299C27.1426 20.3197 29.4899 18.2976 29.4899 15.6274C29.4899 11.5381 24.8666 9.81431 22.5061 13.0739C22.3064 13.3498 21.9868 13.3354 21.9993 13.3323C21.4435 13.3317 21.5101 12.8372 20.5873 12.1263C18.1788 10.2601 14.5099 11.9783 14.5099 15.6274C14.5099 16.8474 14.9758 17.9773 15.976 19.1834C17.0103 20.4308 18.6148 21.7643 19.9748 22.9269L19.1769 23.8836L19.1739 23.8814L19.1714 23.8844C17.7826 22.7156 16.0724 21.2579 15.0138 19.9811C13.8173 18.5382 13.2599 17.1547 13.2599 15.6272C13.2599 10.6004 18.8193 8.34669 22.0001 11.7264C25.1806 8.34406 30.7398 10.6062 30.7398 15.6272C30.7398 19.1006 27.6809 21.4549 24.8308 23.8823C24.7133 23.9824 24.1734 24.0741 23.9499 23.8109Z" fill="black"/>
<path d="M21.9999 61.375C11.3165 61.375 2.62488 52.6835 2.62488 42C2.62488 30.397 12.856 21.2634 24.5071 22.7865C27.3104 23.1486 29.944 24.0984 32.3339 25.6091C32.4033 25.653 32.4633 25.7101 32.5106 25.7771C32.558 25.8442 32.5916 25.9199 32.6096 26C32.6277 26.0801 32.6298 26.1629 32.6158 26.2438C32.6019 26.3247 32.5721 26.402 32.5283 26.4714C32.4844 26.5408 32.4273 26.6008 32.3602 26.6481C32.2932 26.6955 32.2175 26.7291 32.1374 26.7471C32.0573 26.7652 31.9745 26.7673 31.8936 26.7533C31.8127 26.7394 31.7354 26.7096 31.666 26.6658C27.992 24.343 23.7169 23.4948 19.6548 24.026C10.6584 25.1885 3.87488 32.9155 3.87488 42C3.87488 51.9941 12.0058 60.125 21.9999 60.125C25.4344 60.125 28.7769 59.1599 31.666 57.3341C40.8319 51.5488 42.9208 39.023 36.0881 30.5986C35.9837 30.4699 35.9347 30.3049 35.9519 30.1401C35.9691 29.9752 36.0511 29.8239 36.1799 29.7195C36.3086 29.6151 36.4736 29.5661 36.6384 29.5833C36.8033 29.6005 36.9546 29.6825 37.059 29.8113C44.3311 38.7778 42.1764 52.1776 32.3334 58.391C29.2445 60.343 25.6711 61.375 21.9999 61.375Z" fill="black"/>
<path d="M21.9999 55.6063C14.4974 55.6063 8.39363 49.5025 8.39363 42C8.39363 32.088 18.7126 25.5 27.6879 29.6374C27.7624 29.6717 27.8295 29.7205 27.8852 29.7807C27.9409 29.841 27.9842 29.9117 28.0126 29.9887C28.041 30.0657 28.054 30.1475 28.0508 30.2295C28.0475 30.3116 28.0282 30.3921 27.9938 30.4667C27.9595 30.5412 27.9107 30.6083 27.8505 30.664C27.7902 30.7197 27.7195 30.763 27.6425 30.7914C27.5655 30.8198 27.4837 30.8328 27.4017 30.8296C27.3196 30.8263 27.2391 30.807 27.1645 30.7726C18.9945 27.0059 9.64363 33.017 9.64363 42C9.64363 48.8133 15.1866 54.3563 21.9999 54.3563C23.802 54.3563 25.5396 53.9765 27.1645 53.2274C28.8351 52.4585 30.3406 51.3001 31.5185 49.8778C35.3018 45.3149 35.2979 38.6804 31.5188 34.1227C31.413 33.9951 31.3622 33.8307 31.3776 33.6657C31.393 33.5007 31.4733 33.3485 31.6009 33.2427C31.7285 33.1369 31.893 33.0861 32.058 33.1015C32.223 33.1169 32.3752 33.1973 32.481 33.3249C34.4963 35.7551 35.6061 38.8361 35.6061 42C35.6061 45.1639 34.4963 48.2446 32.481 50.6751C31.1846 52.2406 29.527 53.516 27.6875 54.3626C25.8978 55.1878 23.984 55.6063 21.9999 55.6063ZM30.3079 7.44187C30.2498 7.38386 30.2038 7.31497 30.1724 7.23915C30.141 7.16333 30.1248 7.08207 30.1248 7C30.1248 6.91793 30.141 6.83667 30.1724 6.76085C30.2038 6.68503 30.2498 6.61614 30.3079 6.55813L32.8079 4.05813C32.8659 4.00008 32.9348 3.95403 33.0106 3.92262C33.0864 3.8912 33.1677 3.87503 33.2498 3.87503C33.3318 3.87503 33.4131 3.8912 33.4889 3.92262C33.5647 3.95403 33.6336 4.00008 33.6916 4.05813C33.7497 4.11614 33.7957 4.18503 33.8271 4.26085C33.8586 4.33667 33.8747 4.41793 33.8747 4.5C33.8747 4.58207 33.8586 4.66333 33.8271 4.73915C33.7957 4.81497 33.7497 4.88386 33.6916 4.94187L31.1916 7.44187C31.1336 7.49992 31.0647 7.54597 30.9889 7.57738C30.9131 7.6088 30.8318 7.62497 30.7498 7.62497C30.6677 7.62497 30.5864 7.6088 30.5106 7.57738C30.4348 7.54597 30.3659 7.49992 30.3079 7.44187ZM36.9999 12.625H34.4999C34.1546 12.625 33.8749 12.3453 33.8749 12C33.8749 11.6547 34.1546 11.375 34.4999 11.375H36.9999C37.3451 11.375 37.6249 11.6547 37.6249 12C37.6249 12.3453 37.3451 12.625 36.9999 12.625ZM12.8079 7.44187L10.3079 4.94187C10.2486 4.88411 10.2015 4.81515 10.1691 4.73901C10.1367 4.66287 10.1198 4.58106 10.1192 4.49832C10.1187 4.41557 10.1346 4.33355 10.1661 4.25701C10.1975 4.18047 10.2438 4.11093 10.3023 4.05243C10.3608 3.99392 10.4304 3.94762 10.5069 3.9162C10.5835 3.88479 10.6655 3.86888 10.7482 3.86941C10.831 3.86994 10.9128 3.8869 10.9889 3.91929C11.0651 3.95169 11.134 3.99888 11.1918 4.05813L13.6918 6.55813C13.751 6.61589 13.7982 6.68485 13.8306 6.76099C13.8629 6.83713 13.8799 6.91894 13.8804 7.00168C13.8809 7.08443 13.865 7.16645 13.8336 7.24299C13.8022 7.31953 13.7558 7.38907 13.6973 7.44757C13.6388 7.50608 13.5693 7.55238 13.4927 7.5838C13.4162 7.61521 13.3342 7.63112 13.2514 7.63059C13.1687 7.63006 13.0869 7.6131 13.0107 7.58071C12.9346 7.54831 12.8656 7.50112 12.8079 7.44187ZM9.49988 12.625H7.47363C7.30787 12.625 7.1489 12.5592 7.03169 12.4419C6.91448 12.3247 6.84863 12.1658 6.84863 12C6.84863 11.8342 6.91448 11.6753 7.03169 11.5581C7.1489 11.4408 7.30787 11.375 7.47363 11.375H9.49988C9.66564 11.375 9.82461 11.4408 9.94182 11.5581C10.059 11.6753 10.1249 11.8342 10.1249 12C10.1249 12.1658 10.059 12.3247 9.94182 12.4419C9.82461 12.5592 9.66564 12.625 9.49988 12.625ZM21.9999 6.375C21.8341 6.375 21.6752 6.30915 21.5579 6.19194C21.4407 6.07473 21.3749 5.91576 21.3749 5.75V3.25C21.3749 3.08424 21.4407 2.92527 21.5579 2.80806C21.6752 2.69085 21.8341 2.625 21.9999 2.625C22.1656 2.625 22.3246 2.69085 22.4418 2.80806C22.559 2.92527 22.6249 3.08424 22.6249 3.25V5.75C22.6249 5.91576 22.559 6.07473 22.4418 6.19194C22.3246 6.30915 22.1656 6.375 21.9999 6.375Z" fill="black"/>
<path d="M36.3119 54.3625C36.1614 54.2931 36.0446 54.1667 35.9872 54.0112C35.9298 53.8556 35.9366 53.6837 36.006 53.5331C36.0755 53.3826 36.2018 53.2658 36.3574 53.2084C36.5129 53.151 36.6849 53.1578 36.8354 53.2272C45.005 56.9942 54.3562 50.9829 54.3562 42C54.3562 35.1866 48.8132 29.6436 41.9999 29.6436C38.1668 29.6436 34.7408 31.3934 32.4814 34.1222C28.6978 38.6854 28.702 45.3192 32.481 49.8772C32.5334 49.9404 32.5729 50.0133 32.5971 50.0917C32.6213 50.1701 32.6299 50.2525 32.6223 50.3343C32.6146 50.416 32.591 50.4954 32.5527 50.568C32.5143 50.6405 32.4621 50.7049 32.3989 50.7572C32.3358 50.8097 32.2629 50.8491 32.1844 50.8734C32.106 50.8977 32.0236 50.9062 31.9418 50.8986C31.8601 50.891 31.7807 50.8673 31.7081 50.8289C31.6355 50.7906 31.5712 50.7383 31.5188 50.6751C25.8172 43.7982 28.217 33.3636 36.3123 29.6371C45.3103 25.4892 55.6062 32.1087 55.6062 42C55.6062 51.9119 45.2874 58.4999 36.3119 54.3625Z" fill="black"/>
<path d="M41.9999 61.375C38.3287 61.375 34.7554 60.343 31.666 58.3908C31.5284 58.3011 31.4317 58.1608 31.3967 58.0004C31.3617 57.84 31.3913 57.6722 31.479 57.5334C31.5667 57.3946 31.7055 57.2958 31.8655 57.2585C32.0254 57.2213 32.1936 57.2484 32.3336 57.3341C35.223 59.1599 38.5654 60.125 41.9999 60.125C51.994 60.125 60.1249 51.9941 60.1249 42C60.1249 32.0059 51.994 23.875 41.9999 23.875C38.5652 23.875 35.2229 24.8401 32.3337 26.6658C23.1397 32.4695 21.0992 45.0017 27.9116 53.4012C28.016 53.53 28.065 53.6949 28.0478 53.8598C28.0306 54.0247 27.9486 54.176 27.8199 54.2804C27.6911 54.3848 27.5262 54.4338 27.3613 54.4166C27.1964 54.3994 27.0452 54.3174 26.9407 54.1886C19.6347 45.1806 21.8691 31.7931 31.6662 25.6089C34.7552 23.6569 38.3286 22.625 41.9999 22.625C52.6834 22.625 61.3749 31.3165 61.3749 42C61.3749 52.6835 52.6834 61.375 41.9999 61.375Z" fill="black"/>
</svg>
