<svg width="64" height="64" viewBox="0 0 64 64" fill="none" xmlns="http://www.w3.org/2000/svg">
<g clip-path="url(#clip0_474_189)">
<path d="M54 12H41.8667C41.3334 12 40.8 11.6 40.8 10.9334C40.8 10.2667 41.2 9.8667 41.8667 9.8667H54C54.5334 9.8667 55.0667 10.2667 55.0667 10.9334C55.0667 11.6 54.5334 12 54 12ZM58.4 16H41.8667C41.3334 16 40.8 15.6 40.8 14.9334C40.8 14.2667 41.2 13.8667 41.8667 13.8667H58.4C58.9334 13.8667 59.4667 14.2667 59.4667 14.9334C59.4667 15.6 58.9334 16 58.4 16Z" fill="#324D5B"/>
<path d="M35.0666 15.4666C34.9333 11.0666 32.1333 9.33325 28.6666 9.33325C25.1999 9.33325 22.3999 11.0666 22.2666 15.4666C22.3999 18.7999 35.0666 18.7999 35.0666 15.4666Z" fill="#E87785"/>
<path d="M28.6666 18.9333C25.3333 18.9333 21.3333 17.9999 21.2 15.4666C21.3333 10.9333 24.1333 8.2666 28.5333 8.2666C32.9333 8.2666 35.7333 10.9333 35.8666 15.3333C36 17.9999 32.1333 18.9333 28.6666 18.9333ZM28.6666 10.3999C26.2666 10.3999 23.3333 11.3333 23.2 15.5999C23.2 16.1333 25.3333 17.0666 28.6666 17.0666C32.1333 17.0666 34 16.1333 34 15.5999C34 11.1999 31.0666 10.3999 28.6666 10.3999Z" fill="#324D5B"/>
<path d="M28.8 6.39998C30.2727 6.39998 31.4666 5.20608 31.4666 3.73332C31.4666 2.26056 30.2727 1.06665 28.8 1.06665C27.3272 1.06665 26.1333 2.26056 26.1333 3.73332C26.1333 5.20608 27.3272 6.39998 28.8 6.39998Z" fill="white"/>
<path d="M28.8 7.33333C26.8 7.33333 25.0667 5.73333 25.0667 3.6C25.0667 1.46667 26.8 0 28.8 0C30.8 0 32.4 1.6 32.4 3.73333C32.4 5.86667 30.8 7.33333 28.8 7.33333ZM28.8 2C27.8667 2 27.0667 2.8 27.0667 3.73333C27.0667 4.66667 27.8667 5.33333 28.8 5.33333C29.7333 5.33333 30.5333 4.53333 30.5333 3.6C30.5333 2.66667 29.7333 2 28.8 2ZM54 34.6667H41.8667C41.3333 34.6667 40.8 34.2667 40.8 33.6C40.8 32.9333 41.2 32.5333 41.8667 32.5333H54C54.5333 32.5333 55.0667 32.9333 55.0667 33.6C55.0667 34.2667 54.5333 34.6667 54 34.6667ZM58.4 38.6667H41.8667C41.3333 38.6667 40.8 38.2667 40.8 37.6C40.8 36.9333 41.2 36.5333 41.8667 36.5333H58.4C58.9333 36.5333 59.4667 36.9333 59.4667 37.6C59.4667 38.2667 58.9333 38.6667 58.4 38.6667Z" fill="#324D5B"/>
<path d="M35.0666 38C34.9333 33.6 32.1333 31.8667 28.6666 31.8667C25.1999 31.8667 22.3999 33.6 22.2666 38C22.3999 41.3334 35.0666 41.3334 35.0666 38Z" fill="#FFD92E"/>
<path d="M28.6666 41.4667C25.3333 41.4667 21.3333 40.5334 21.2 38C21.3333 33.4667 24.1333 30.8 28.5333 30.8C32.9333 30.8 35.7333 33.4667 35.8666 37.8667C36 40.5334 32.1333 41.4667 28.6666 41.4667ZM28.6666 32.9334C26.2666 32.9334 23.3333 33.8667 23.2 38.1334C23.2 38.6667 25.3333 39.6 28.6666 39.6C32.1333 39.6 34 38.6667 34 38.1334C34 33.7334 31.0666 32.9334 28.6666 32.9334Z" fill="#324D5B"/>
<path d="M28.8 28.9334C30.2727 28.9334 31.4666 27.7395 31.4666 26.2668C31.4666 24.794 30.2727 23.6001 28.8 23.6001C27.3272 23.6001 26.1333 24.794 26.1333 26.2668C26.1333 27.7395 27.3272 28.9334 28.8 28.9334Z" fill="white"/>
<path d="M28.8 30.0001C26.8 30.0001 25.0667 28.4001 25.0667 26.2668C25.0667 24.1334 26.6667 22.5334 28.8 22.5334C30.9333 22.5334 32.4 24.1334 32.4 26.2668C32.4 28.4001 30.8 30.0001 28.8 30.0001ZM28.8 24.6668C27.8667 24.6668 27.0667 25.4668 27.0667 26.4001C27.0667 27.3334 27.8667 28.1334 28.8 28.1334C29.7333 28.1334 30.5333 27.3334 30.5333 26.4001C30.5333 25.4668 29.7333 24.6668 28.8 24.6668ZM54 57.0668H41.8667C41.3333 57.0668 40.8 56.6668 40.8 56.0001C40.8 55.3334 41.2 54.9334 41.8667 54.9334H54C54.5333 54.9334 55.0667 55.3334 55.0667 56.0001C55.0667 56.6668 54.5333 57.0668 54 57.0668ZM58.4 61.3334H41.8667C41.3333 61.3334 40.8 60.9334 40.8 60.2668C40.8 59.6001 41.2 59.2001 41.8667 59.2001H58.4C58.9333 59.2001 59.4667 59.6001 59.4667 60.2668C59.4667 60.9334 58.9333 61.3334 58.4 61.3334Z" fill="#324D5B"/>
<path d="M35.0666 60.5332C34.9333 56.1332 32.1333 54.3999 28.6666 54.3999C25.1999 54.3999 22.3999 56.1332 22.2666 60.5332C22.3999 63.8666 35.0666 63.8666 35.0666 60.5332Z" fill="#8FDA6C"/>
<path d="M28.6667 63.9999C25.3334 63.9999 21.3334 63.0666 21.3334 60.5333C21.4667 55.9999 24.2667 53.3333 28.6667 53.3333C33.0667 53.3333 35.8667 55.9999 36 60.3999C36 63.0666 32.1334 63.9999 28.6667 63.9999ZM28.6667 55.3333C26.2667 55.3333 23.3334 56.2666 23.2 60.5333C23.2 61.0666 25.3334 61.9999 28.6667 61.9999C32.1334 61.9999 34 61.0666 34 60.5333C34 56.2666 31.0667 55.3333 28.6667 55.3333Z" fill="#324D5B"/>
<path d="M28.8 51.4666C30.2727 51.4666 31.4666 50.2727 31.4666 48.8C31.4666 47.3272 30.2727 46.1333 28.8 46.1333C27.3272 46.1333 26.1333 47.3272 26.1333 48.8C26.1333 50.2727 27.3272 51.4666 28.8 51.4666Z" fill="#FEFFFF"/>
<path d="M28.8 52.4001C26.8 52.4001 25.0667 50.8001 25.0667 48.6668C25.0667 46.5334 26.6667 44.9334 28.8 44.9334C30.9333 44.9334 32.4 46.5334 32.4 48.6668C32.4 50.8001 30.8 52.4001 28.8 52.4001ZM28.8 47.0668C27.8667 47.0668 27.0667 47.8668 27.0667 48.8001C27.0667 49.7334 27.8667 50.5334 28.8 50.5334C29.7333 50.5334 30.5333 49.7334 30.5333 48.8001C30.5333 47.8668 29.7333 47.0668 28.8 47.0668ZM10.6667 15.8668C7.19999 15.8668 4.53333 13.0668 4.53333 9.73343C4.53333 6.4001 7.33332 3.6001 10.9333 3.6001C11.4667 3.6001 12 4.0001 12 4.66676C12 5.33343 11.3333 5.46676 10.8 5.46676C8.39999 5.46676 6.39999 7.33343 6.39999 9.6001C6.39999 11.8668 8.26666 13.7334 10.5333 13.7334C12.8 13.7334 14.6667 11.8668 14.6667 9.6001C14.6667 9.06676 15.0667 8.53343 15.7333 8.53343C16.4 8.53343 16.8 8.93343 16.8 9.6001C16.8 13.0668 14.1333 15.8668 10.6667 15.8668Z" fill="#324D5B"/>
<path d="M10.8 11.3334C10.5333 11.3334 10.2667 11.2001 10.1333 11.0668L8.26666 9.20011C7.86666 8.80011 7.86666 8.13345 8.26666 7.73345C8.66666 7.33345 9.33333 7.33345 9.73333 7.73345L10.9333 8.93345L16.5333 3.33345C16.9333 2.93345 17.6 2.93345 18 3.33345C18.4 3.73345 18.4 4.40011 18 4.80011L11.4667 11.0668C11.3333 11.3334 11.0667 11.3334 10.8 11.3334ZM10.6667 38.4001C7.19999 38.4001 4.53333 35.6001 4.53333 32.1334C4.53333 28.6668 7.19999 26.0001 10.6667 26.0001C11.2 26.0001 11.7333 26.4001 11.7333 27.0668C11.7333 27.7334 11.2 28.0001 10.6667 28.0001C8.26666 28.0001 6.53333 29.8668 6.53333 32.1334C6.53333 34.4001 8.39999 36.4001 10.6667 36.4001C12.9333 36.4001 14.8 34.5334 14.8 32.1334C14.8 31.6001 15.2 31.0668 15.8667 31.0668C16.5333 31.0668 16.9333 31.4668 16.9333 32.1334C16.8 35.6001 14.1333 38.4001 10.6667 38.4001Z" fill="#324D5B"/>
<path d="M10.8 34C10.5333 34 10.2667 33.8666 10.1333 33.7333L8.26666 31.8666C7.86666 31.4666 7.86666 30.8 8.26666 30.4C8.66666 30 9.33333 30 9.73333 30.4L10.9333 31.6L16.5333 26C16.9333 25.6 17.6 25.6 18 26C18.4 26.4 18.4 27.0666 18 27.4666L11.7333 33.7333C11.3333 33.8666 11.0667 34 10.8 34ZM10.6667 60.9333C7.19999 60.9333 4.53333 58.1333 4.53333 54.6666C4.53333 51.2 7.33333 48.4 10.6667 48.4C11.2 48.4 11.7333 48.8 11.7333 49.4666C11.7333 50.1333 11.2 50.4 10.6667 50.4C8.39999 50.4 6.53333 52.2666 6.53333 54.6666C6.53333 57.0666 8.39999 58.9333 10.6667 58.9333C12.9333 58.9333 14.8 57.0666 14.8 54.6666C14.8 54.1333 15.2 53.6 15.8667 53.6C16.5333 53.6 16.9333 54 16.9333 54.6666C16.8 58.1333 14.1333 60.9333 10.6667 60.9333Z" fill="#324D5B"/>
<path d="M10.8 56.4001C10.5333 56.4001 10.2667 56.2668 10.1333 56.1334L8.26667 54.2668C7.86667 53.8668 7.86667 53.2001 8.26667 52.8001C8.66667 52.4001 9.33334 52.4001 9.73334 52.8001L10.9333 54.0001L16.5333 48.4001C16.9333 48.0001 17.6 48.0001 18 48.4001C18.4 48.8001 18.4 49.4668 18 49.8668L11.7333 56.1334C11.3333 56.4001 11.0667 56.4001 10.8 56.4001Z" fill="#324D5B"/>
</g>
<defs>
<clipPath id="clip0_474_189">
<rect width="64" height="64" fill="white"/>
</clipPath>
</defs>
</svg>
