<svg width="64" height="64" viewBox="0 0 64 64" fill="none" xmlns="http://www.w3.org/2000/svg">
<path d="M63.0625 54.8103H0.9375L18.4101 44.1326H45.5899L63.0625 54.8103Z" fill="#F25E6C"/>
<path d="M18.4101 44.1326L0.9375 54.8103H4.82028L22.2929 44.1326H18.4101Z" fill="#E8465E"/>
<path d="M6.76173 23.7478C8.37006 23.7478 9.67386 22.444 9.67386 20.8357C9.67386 19.2274 8.37006 17.9236 6.76173 17.9236C5.15341 17.9236 3.84961 19.2274 3.84961 20.8357C3.84961 22.444 5.15341 23.7478 6.76173 23.7478Z" fill="#FED44C"/>
<path d="M6.34961 20.8357C6.34961 19.6748 7.02898 18.6726 8.01173 18.2048C7.62123 18.0191 7.19415 17.923 6.76173 17.9236C5.15348 17.9236 3.84961 19.2273 3.84961 20.8357C3.84961 22.4441 5.15336 23.7478 6.76173 23.7478C7.20911 23.7478 7.63298 23.6468 8.01173 23.4666C7.02886 22.9987 6.34961 21.9966 6.34961 20.8357Z" fill="#F2B84C"/>
<path d="M57.2383 23.7478C58.8466 23.7478 60.1504 22.444 60.1504 20.8357C60.1504 19.2274 58.8466 17.9236 57.2383 17.9236C55.63 17.9236 54.3262 19.2274 54.3262 20.8357C54.3262 22.444 55.63 23.7478 57.2383 23.7478Z" fill="#FED44C"/>
<path d="M56.8262 20.8357C56.8262 19.6748 57.5056 18.6726 58.4883 18.2048C58.0978 18.0191 57.6707 17.923 57.2383 17.9236C55.6301 17.9236 54.3262 19.2273 54.3262 20.8357C54.3262 22.4441 55.6299 23.7478 57.2383 23.7478C57.6857 23.7478 58.1096 23.6468 58.4883 23.4666C57.5056 22.9987 56.8262 21.9966 56.8262 20.8357Z" fill="#F2B84C"/>
<path d="M4.82031 23.7476H8.70309V47.0445H4.82031V23.7476ZM55.297 23.7476H59.1797V47.0445H55.297V23.7476Z" fill="#FED44C"/>
<path d="M18.4102 40.2498H45.5899V44.1325H18.4102V40.2498Z" fill="#E8465E"/>
<path d="M18.4102 40.2498H22.2929V44.1325H18.4102V40.2498Z" fill="#DD2A4D"/>
<path d="M22.293 36.3669H41.707V40.2523H22.293V36.3669Z" fill="#F25E6C"/>
<path d="M22.293 36.3669H25.9663V40.2523H22.293V36.3669ZM25.9663 32.4841H38.0336V36.3669H25.9663V32.4841Z" fill="#E8465E"/>
<path d="M25.9663 32.4841H29.7163V36.3669H25.9663V32.4841Z" fill="#DD2A4D"/>
<path d="M32.7845 9.7206L33.9711 12.125C34.0339 12.2522 34.1267 12.3622 34.2415 12.4456C34.3563 12.529 34.4896 12.5832 34.63 12.6036L37.2834 12.9891C38.0011 13.0933 38.2876 13.9753 37.7684 14.4816L35.8484 16.3531C35.7468 16.4521 35.6708 16.5744 35.627 16.7093C35.5831 16.8442 35.5728 16.9878 35.5968 17.1276L36.05 19.7702C36.1726 20.485 35.4224 21.0301 34.7804 20.6926L32.4071 19.4448C32.2816 19.3788 32.1418 19.3443 32 19.3443C31.8581 19.3443 31.7183 19.3788 31.5928 19.4448L29.2195 20.6926C28.5776 21.0301 27.8274 20.485 27.9499 19.7702L28.4031 17.1276C28.4271 16.9878 28.4168 16.8442 28.3729 16.7093C28.3291 16.5744 28.2531 16.4521 28.1515 16.3531L26.2315 14.4816C25.7121 13.9753 25.9988 13.0933 26.7165 12.9891L29.3699 12.6036C29.5103 12.5832 29.6436 12.529 29.7584 12.4456C29.8732 12.3622 29.966 12.2522 30.0288 12.125L31.2154 9.7206C31.5363 9.07035 32.4636 9.07035 32.7845 9.7206Z" fill="#FED44C"/>
<path d="M35.5968 17.1278L36.05 19.7704C36.1726 20.4851 35.4224 21.0303 34.7804 20.6928L32.4071 19.445C32.2816 19.379 32.1418 19.3445 32 19.3445C31.8581 19.3445 31.7183 19.379 31.5928 19.445L29.2195 20.6928C28.5776 21.0303 27.8274 20.4851 27.9499 19.7704L28.4031 17.1278C28.4271 16.9879 28.4168 16.8444 28.3729 16.7095C28.3291 16.5745 28.2531 16.4523 28.1515 16.3533L26.2315 14.4818C25.7121 13.9755 25.9988 13.0935 26.7165 12.9893L29.3699 12.6038C30.2916 15.107 32 17.0445 35.5968 17.1278Z" fill="#F2B84C"/>
<path d="M41.7069 15.0141H43.6484M22.2927 15.0141H20.3513M40.4064 19.8677L42.0877 20.8384M23.5932 10.1606L21.9118 9.18994M40.4064 10.1606L42.0877 9.18994M23.5932 19.8677L21.9118 20.8384M10.5771 48.919L18.4097 44.1327H45.5899L53.4225 48.919M51.4137 54.8103H12.5859M8.70336 34.5276V47.0452H4.81958V23.7476H8.70336V30.4414M32.7844 9.72057L33.9711 12.125C34.0339 12.2522 34.1266 12.3622 34.2414 12.4456C34.3562 12.529 34.4895 12.5832 34.6299 12.6036L37.2833 12.9891C38.0011 13.0933 38.2876 13.9754 37.7683 14.4816L35.8483 16.3531C35.7467 16.4521 35.6707 16.5744 35.6269 16.7093C35.5831 16.8442 35.5727 16.9878 35.5967 17.1276L36.0499 19.7703C36.1726 20.485 35.4223 21.0302 34.7803 20.6927L32.407 19.4449C32.2815 19.3789 32.1417 19.3444 31.9999 19.3444C31.858 19.3444 31.7182 19.3789 31.5927 19.4449L29.2194 20.6927C28.5775 21.0302 27.8273 20.485 27.9498 19.7703L28.403 17.1276C28.427 16.9878 28.4166 16.8442 28.3728 16.7093C28.329 16.5744 28.253 16.4522 28.1514 16.3531L26.2314 14.4816C25.712 13.9754 25.9986 13.0933 26.7164 12.9891L29.3698 12.6036C29.5102 12.5832 29.6435 12.529 29.7583 12.4456C29.8731 12.3622 29.9659 12.2522 30.0287 12.125L31.2153 9.72057C31.5362 9.07032 32.4635 9.07032 32.7844 9.72057Z" stroke="black" stroke-miterlimit="10" stroke-linecap="round" stroke-linejoin="round"/>
<path d="M6.76173 23.7478C8.37006 23.7478 9.67386 22.444 9.67386 20.8357C9.67386 19.2274 8.37006 17.9236 6.76173 17.9236C5.15341 17.9236 3.84961 19.2274 3.84961 20.8357C3.84961 22.444 5.15341 23.7478 6.76173 23.7478Z" stroke="black" stroke-miterlimit="10" stroke-linecap="round" stroke-linejoin="round"/>
<path d="M12.5859 54.8102H0.9375V50.9274L4.82025 47.0447H8.70312L12.5859 50.9274V54.8102Z" fill="#FED44C"/>
<path d="M8.70312 47.0447H4.82025L0.9375 50.9274V54.8102H4.82025V51.2898C4.82025 51.0577 4.91237 50.8352 5.0765 50.6711L8.70312 47.0447Z" fill="#F2B84C"/>
<path d="M59.1802 42.2927V47.0452H55.2964V23.7476H59.1802V38.2064M12.586 54.8103H0.9375V50.9275L4.82028 47.0447H8.70319L12.586 50.9275V54.8103Z" stroke="black" stroke-miterlimit="10" stroke-linecap="round" stroke-linejoin="round"/>
<path d="M57.2383 23.7478C58.8466 23.7478 60.1504 22.444 60.1504 20.8357C60.1504 19.2274 58.8466 17.9236 57.2383 17.9236C55.63 17.9236 54.3262 19.2274 54.3262 20.8357C54.3262 22.444 55.63 23.7478 57.2383 23.7478Z" stroke="black" stroke-miterlimit="10" stroke-linecap="round" stroke-linejoin="round"/>
<path d="M63.0624 54.8102H51.4141V50.9274L55.2969 47.0447H59.1797L63.0624 50.9274V54.8102Z" fill="#FED44C"/>
<path d="M59.1798 47.0447H55.2971L51.4143 50.9274V54.8102H55.2971V51.2898C55.2971 51.0577 55.3892 50.8352 55.5533 50.6711L59.1798 47.0447Z" fill="#F2B84C"/>
<path d="M34.21 40.2502H45.5901V44.1328H18.4099V40.2502H30.125M63.0625 54.8104H51.414V50.9276L55.297 47.0448H59.1797L63.0625 50.9276V54.8104Z" stroke="black" stroke-miterlimit="10" stroke-linecap="round" stroke-linejoin="round"/>
<path d="M34.2101 40.2525H41.7076V36.3662H22.2925V40.2525H30.125" stroke="black" stroke-miterlimit="10" stroke-linecap="round" stroke-linejoin="round"/>
<path d="M2.87891 23.7476H10.6446C24.8816 30.2189 39.1186 30.2189 53.3556 23.7476H61.1212M25.9663 32.484H38.0337V36.3668H25.9663V32.484Z" stroke="black" stroke-miterlimit="10" stroke-linecap="round" stroke-linejoin="round"/>
</svg>
