<svg width="64" height="64" viewBox="0 0 64 64" fill="none" xmlns="http://www.w3.org/2000/svg">
<path d="M55.0894 28.1069L54.8997 27.8264H41.8835C36.712 35.3472 33.9823 44.2782 34.0656 53.405L34.0669 53.547H34.1152C34.1152 55.9321 40.507 57.8655 48.3917 57.8655C56.2764 57.8655 62.6682 55.9321 62.6682 53.547H62.7165V52.9942C62.7157 44.1231 60.0593 35.4552 55.0894 28.1069Z" fill="#FFA9CB"/>
<path d="M36.8473 54.9132H36.799L36.7977 54.7712C36.7144 45.6444 39.4441 36.7133 44.6156 29.1926V27.8264H41.8833C36.7118 35.3472 33.9821 44.2782 34.0653 53.405L34.0667 53.547H34.1149C34.1149 54.6524 35.4886 55.6606 37.7468 56.4244C37.1657 55.9539 36.8473 55.4447 36.8473 54.9132Z" fill="#FFCEE2"/>
<path d="M41.8835 22.9077H54.8998V27.8262H41.8835V22.9077Z" fill="#FFA9CB"/>
<path d="M55.5504 20.8807C55.8911 19.8193 56.236 18.7588 56.6222 17.713C57.2352 16.0526 57.5077 14.2858 57.4234 12.5179C57.3392 10.75 56.8998 9.01716 56.1316 7.42266L56.0793 7.3064H51.6022V12.494L48.3246 16.0125L45.047 12.494V7.3064H40.6166C39.0377 10.5594 38.8756 14.3154 40.1342 17.6833C40.5232 18.7239 40.8695 19.78 41.2119 20.8366L41.8832 22.9078H54.8994L55.5504 20.8807Z" fill="#FFA9CB"/>
<path d="M42.8668 17.6833C41.6082 14.3154 41.7703 10.5594 43.3492 7.3064H40.6169C39.038 10.5594 38.8758 14.3154 40.1345 17.6833C40.5234 18.7239 40.8697 19.78 41.2121 20.8367L41.8834 22.908H44.6158L43.9444 20.8367C43.6019 19.78 43.2558 18.7239 42.8668 17.6833Z" fill="#FFCEE2"/>
<path d="M55.6551 27.7243L55.5827 27.617V23.0149C56.1054 21.403 56.6835 19.5173 57.2631 17.9497C58.5581 14.444 58.3713 10.5025 56.751 7.13438C56.6514 6.84338 56.3965 6.61865 56.0794 6.62343H51.6022C51.421 6.62343 51.2473 6.6954 51.1192 6.8235C50.9911 6.9516 50.9191 7.12535 50.9191 7.30652V12.2253L48.3247 15.0104L45.7302 12.2253V7.30638C45.7302 7.12521 45.6583 6.95147 45.5302 6.82336C45.4021 6.69526 45.2283 6.62329 45.0471 6.62329H40.6168C40.4886 6.62329 40.3629 6.65936 40.2543 6.7274C40.1456 6.79543 40.0583 6.89267 40.0023 7.00801C38.3553 10.4009 38.1704 14.3791 39.4945 17.9225C40.0785 19.4836 40.6731 21.406 41.2003 23.016V27.6177C36.0009 35.2574 33.2972 44.1709 33.3823 53.4106C33.409 60.2837 64.2222 60.395 63.3992 52.994C63.3992 43.9551 60.7214 35.2169 55.6551 27.7243ZM40.7742 17.4444C39.6298 14.3823 39.7352 10.9612 41.0526 7.9896H44.3639V12.4942C44.3639 12.667 44.4294 12.8332 44.5473 12.9597L47.8248 16.4782C48.0811 16.7656 48.5682 16.7656 48.8243 16.4782L52.1018 12.9597C52.2196 12.8333 52.2851 12.6669 52.2851 12.4942V7.98947H55.6424C56.9887 10.9666 57.1151 14.4068 55.9812 17.4762C55.4231 18.9855 54.9 20.6821 54.4013 22.2247H42.38C41.8736 20.6745 41.34 18.9564 40.7742 17.4444ZM54.2165 23.5911V27.1434H42.5666V23.5911H54.2165ZM62.0331 53.2942C61.9865 54.4125 60.8015 55.1723 58.0656 56.0163L55.4813 42.7157C55.4456 42.539 55.3414 42.3836 55.1916 42.2834C55.0418 42.1831 54.8584 42.1462 54.6814 42.1806C54.5045 42.215 54.3483 42.3179 54.2469 42.467C54.1455 42.6161 54.1072 42.7992 54.1403 42.9764L56.7397 56.3556C54.6958 56.8162 52.109 57.1353 49.0728 57.1771V42.8459C49.0728 42.4686 48.7671 42.1628 48.3898 42.1628C48.0124 42.1628 47.7067 42.4686 47.7067 42.8459V57.177C44.6702 57.1349 42.0836 56.8156 40.04 56.355L42.6394 42.9763C42.674 42.7984 42.6365 42.6142 42.5352 42.464C42.4339 42.3138 42.277 42.21 42.0992 42.1754C41.9214 42.141 41.7372 42.1786 41.5871 42.2799C41.4369 42.3812 41.3331 42.5379 41.2984 42.7156L38.7144 56.0153C36.195 55.2843 34.798 54.3351 34.798 53.5469C34.798 53.4586 34.781 53.3711 34.7477 53.2893C34.6877 44.4177 37.278 35.86 42.2444 28.5094H54.537C59.4412 35.7709 62.0332 44.237 62.0332 52.9942V53.2942H62.0331Z" fill="#333333"/>
<path d="M25.1491 56.9993H20.1431L17.8617 34.9292L15.5802 56.9993H10.5671V30.9685H25.1491V56.9993Z" fill="white"/>
<path d="M10.5767 56.9993V30.9685H25.1588V56.9993" fill="#80A6E2"/>
<path d="M10.5769 30.9685H13.3093V56.9993H10.5769V30.9685Z" fill="#B3CAEE"/>
<path d="M20.143 56.9994L17.8616 34.9292L15.5801 56.9994" fill="white"/>
<path d="M31.3645 27.0241L35.0533 24.8097L25.3722 8.90509L23.4205 7.95874L17.8678 20.6948L12.3152 7.95874L10.3635 8.90509L0.682373 24.8097L4.37118 27.0241L10.3635 17.3116L11.3373 26.6912L9.22275 32.6805H16.499L17.8678 30.3979L19.2367 32.6805H26.5129L24.3984 26.8058L25.3722 17.3116L31.3645 27.0241Z" fill="#80A6E2"/>
<path d="M13.8302 11.5463L12.3152 7.95874L10.3635 8.90509L0.682373 24.8097L4.37118 27.0241L4.49455 26.8241L13.8302 11.5463Z" fill="#B3CAEE"/>
<path d="M17.8581 20.6947L23.4685 8.09969L23.4242 7.96526L20.7797 6.68311H14.9366L12.2826 7.96977L12.2478 8.09969L17.8581 20.6947Z" fill="#EEEEEE"/>
<path d="M17.8582 24.6323C18.4252 24.6323 18.8849 24.1724 18.8849 23.6051C18.8849 23.0378 18.4252 22.5779 17.8582 22.5779C17.2912 22.5779 16.8315 23.0378 16.8315 23.6051C16.8315 24.1724 17.2912 24.6323 17.8582 24.6323Z" fill="#333333"/>
<path d="M17.8582 28.741C18.4252 28.741 18.8849 28.2811 18.8849 27.7138C18.8849 27.1464 18.4252 26.6865 17.8582 26.6865C17.2912 26.6865 16.8315 27.1464 16.8315 27.7138C16.8315 28.2811 17.2912 28.741 17.8582 28.741Z" fill="#333333"/>
<path d="M35.6367 24.4546L25.9555 8.54983C25.8873 8.43771 25.7882 8.34763 25.6701 8.29039L21.0874 6.06845C20.9945 6.02339 20.8925 5.99999 20.7893 6H14.9461C14.8429 5.99999 14.741 6.02339 14.648 6.06845L10.0652 8.29039C9.9471 8.34763 9.84801 8.43771 9.77981 8.54983L0.09895 24.4546C-0.0990088 24.7655 0.0111049 25.212 0.33079 25.3955L4.0196 27.6098C4.17368 27.7023 4.35802 27.7304 4.53266 27.6878C4.70729 27.6453 4.85812 27.5357 4.95242 27.3827L9.89115 19.3779L10.6419 26.6088L8.57867 32.453C8.41472 32.8796 8.76583 33.3762 9.22282 33.3635H9.89375V56.9993C9.89375 57.3767 10.1995 57.6824 10.5768 57.6824C10.9542 57.6824 11.2599 57.3767 11.2599 56.9993V33.3635H16.4989C16.6169 33.3635 16.7329 33.333 16.8356 33.2748C16.9382 33.2167 17.0241 33.1329 17.0847 33.0317L17.8678 31.7259L18.6508 33.0317C18.7115 33.1329 18.7973 33.2167 18.9 33.2748C19.0026 33.333 19.1186 33.3635 19.2366 33.3635H24.4758V56.9993C24.4758 57.3767 24.7815 57.6824 25.1588 57.6824C25.5362 57.6824 25.8419 57.3767 25.8419 56.9993V33.3635H26.5129C26.9715 33.3762 27.323 32.8764 27.1555 32.4492L25.0935 26.7208L25.8464 19.3813L30.7831 27.3826C30.8775 27.5355 31.0283 27.6451 31.2029 27.6876C31.3775 27.7301 31.5618 27.7021 31.7159 27.6096L35.4048 25.3953C35.7246 25.212 35.8344 24.7657 35.6367 24.4546ZM15.1032 7.36618H20.6326L22.532 8.28712L17.8678 18.9855L13.2036 8.28712L15.1032 7.36618ZM31.5915 26.0911L25.9533 16.9529C25.638 16.4026 24.7363 16.6096 24.6924 17.2418L23.7186 26.7361C23.7082 26.8379 23.7208 26.9408 23.7555 27.0371L25.5408 31.9974H19.6235L18.4537 30.0466C18.2097 29.61 17.5259 29.6101 17.282 30.0466L16.112 31.9974H10.1883L11.9814 26.9186C12.0151 26.8231 12.0272 26.7213 12.0168 26.6205L11.043 17.2409C10.9983 16.609 10.0966 16.4029 9.78213 16.9529L4.14392 26.0911L1.62306 24.5779L10.8424 9.43197L11.9732 8.88359L17.2416 20.9677C17.4551 21.5057 18.2803 21.5057 18.4938 20.9677L23.7622 8.88359L24.893 9.43197L34.1122 24.5778L31.5915 26.0911Z" fill="#333333"/>
<path d="M20.1519 57.6824C19.983 57.6822 19.8202 57.6195 19.6949 57.5063C19.5695 57.3931 19.4905 57.2376 19.4731 57.0696L17.8712 41.5725L16.2692 57.0696C16.2498 57.2491 16.16 57.4136 16.0196 57.5272C15.8792 57.6407 15.6995 57.6941 15.5199 57.6755C15.3403 57.657 15.1753 57.5681 15.0611 57.4282C14.9468 57.2884 14.8926 57.109 14.9103 56.9293L17.1916 34.8591C17.2089 34.6909 17.2879 34.535 17.4134 34.4217C17.5389 34.3083 17.702 34.2456 17.8712 34.2456C18.0403 34.2456 18.2034 34.3083 18.3289 34.4217C18.4545 34.535 18.5335 34.6909 18.5507 34.8591L20.8321 56.9293C20.8761 57.329 20.5539 57.685 20.1519 57.6824Z" fill="#333333"/>
<path d="M4.91898 45.4967H3.82604V44.4038C3.82604 44.0264 3.52029 43.7207 3.14295 43.7207C2.76562 43.7207 2.45987 44.0264 2.45987 44.4038V45.4967H1.36693C0.989588 45.4967 0.683838 45.8025 0.683838 46.1798C0.683838 46.5571 0.989588 46.8629 1.36693 46.8629H2.45987V47.9558C2.45987 48.3332 2.76562 48.6389 3.14295 48.6389C3.52029 48.6389 3.82604 48.3332 3.82604 47.9558V46.8629H4.91898C5.10015 46.8629 5.27389 46.7909 5.402 46.6628C5.5301 46.5347 5.60207 46.361 5.60207 46.1798C5.60207 45.9986 5.5301 45.8249 5.402 45.6968C5.27389 45.5687 5.10015 45.4967 4.91898 45.4967ZM62.7161 23.9491H61.6232V22.8562C61.6232 22.4788 61.3174 22.1731 60.9401 22.1731C60.5628 22.1731 60.257 22.4788 60.257 22.8562V23.9491H59.1641C58.7867 23.9491 58.481 24.2549 58.481 24.6322C58.481 25.0095 58.7867 25.3153 59.1641 25.3153H60.257V26.4082C60.257 26.7856 60.5628 27.0913 60.9401 27.0913C61.3174 27.0913 61.6232 26.7856 61.6232 26.4082V25.3153H62.7161C63.0935 25.3153 63.3992 25.0095 63.3992 24.6322C63.3992 24.2549 63.0935 23.9491 62.7161 23.9491Z" fill="#333333"/>
</svg>
